<svg width="602" height="197" viewBox="0 0 602 197" fill="none" xmlns="http://www.w3.org/2000/svg">
<path d="M38.744 64.432C35.672 64.048 32.408 64 28.952 64.288C25.496 64.48 22.04 64.384 18.584 64C21.656 75.328 24.44 87.232 26.936 99.712C29.432 112.192 31.64 124.432 33.56 136.432C35.384 136.432 37.448 136.432 39.752 136.432C42.152 136.528 44.552 136.576 46.952 136.576C49.448 136.672 51.848 136.672 54.152 136.576C56.552 136.576 58.712 136.432 60.632 136.144C61.976 130.96 62.936 125.488 63.512 119.728C64.184 113.872 65.096 108.304 66.248 103.024C67.304 108.4 68.264 114.016 69.128 119.872C70.088 125.728 71 131.248 71.864 136.432C73.688 136.432 75.656 136.432 77.768 136.432C79.976 136.528 82.184 136.576 84.392 136.576C86.696 136.672 88.904 136.672 91.016 136.576C93.224 136.576 95.288 136.432 97.208 136.144C98.84 130.096 100.328 124 101.672 117.856C103.016 111.616 104.36 105.424 105.704 99.28C107.048 93.136 108.44 87.136 109.88 81.28C111.416 75.328 113.192 69.616 115.208 64.144C111.368 63.856 108.056 63.856 105.272 64.144C102.488 64.432 99.56 64.576 96.488 64.576C95.624 66.784 94.712 70.048 93.752 74.368C92.888 78.688 91.976 83.296 91.016 88.192C90.056 93.088 89.048 97.888 87.992 102.592C86.936 107.2 85.832 110.896 84.68 113.68C83.624 110.8 82.664 107.248 81.8 103.024C80.936 98.8 80.12 94.384 79.352 89.776C78.68 85.168 78.008 80.608 77.336 76.096C76.76 71.584 76.136 67.6 75.464 64.144C74.024 63.856 72.728 63.712 71.576 63.712C70.424 63.712 69.224 63.76 67.976 63.856C66.824 63.952 65.576 64.048 64.232 64.144C62.888 64.24 61.304 64.192 59.48 64C59.48 64 59.384 64.528 59.192 65.584C59 66.64 58.808 67.792 58.616 69.04C58.424 70.288 58.184 71.44 57.896 72.496C57.704 73.552 57.608 74.08 57.608 74.08C56.456 79.36 55.496 83.872 54.728 87.616C54.056 91.264 53.384 94.576 52.712 97.552C52.04 100.432 51.368 103.12 50.696 105.616C50.024 108.112 49.16 110.8 48.104 113.68C47.048 110.8 46.088 107.296 45.224 103.168C44.36 98.944 43.544 94.528 42.776 89.92C42.104 85.312 41.432 80.8 40.76 76.384C40.088 71.872 39.416 67.888 38.744 64.432Z" fill="#FFFBFB"/>
<path d="M184.78 99.67C184.78 95.89 184.08 92.495 182.68 89.485C181.28 86.405 178.935 84.165 175.645 82.765C173.825 82.345 171.83 82.03 169.66 81.82C167.49 81.54 165.32 81.4 163.15 81.4C160.98 81.4 158.915 81.505 156.955 81.715C155.065 81.925 153.455 82.205 152.125 82.555C148.695 83.465 146.035 85.215 144.145 87.805C142.325 90.395 141.345 93.23 141.205 96.31C141.135 99.32 141.975 102.26 143.725 105.13C145.545 107.93 148.415 109.995 152.335 111.325C154.295 112.165 156.29 112.76 158.32 113.11C160.35 113.46 162.17 113.88 163.78 114.37C165.39 114.79 166.685 115.42 167.665 116.26C168.645 117.1 169.03 118.36 168.82 120.04C168.89 122.07 168.26 123.47 166.93 124.24C165.6 125.01 164.13 125.325 162.52 125.185C160.91 124.975 159.37 124.38 157.9 123.4C156.5 122.35 155.765 121.02 155.695 119.41C153.525 119.41 150.97 119.375 148.03 119.305C145.09 119.165 142.465 119.235 140.155 119.515V119.725V120.04C140.155 122.84 140.715 125.36 141.835 127.6C143.025 129.84 144.635 131.73 146.665 133.27C148.765 134.81 151.25 135.965 154.12 136.735C156.99 137.505 160.21 137.82 163.78 137.68C167.84 137.75 171.585 137.05 175.015 135.58C178.445 134.11 180.965 131.66 182.575 128.23C183.905 124.38 184.395 121.16 184.045 118.57C183.695 115.91 182.75 113.32 181.21 110.8C179.6 108.7 177.08 107.195 173.65 106.285C170.22 105.305 166.545 104.535 162.625 103.975C161.015 103.415 159.79 102.575 158.95 101.455C158.11 100.335 157.69 99.215 157.69 98.095C157.69 96.975 158.075 95.96 158.845 95.05C159.685 94.07 160.91 93.44 162.52 93.16C163.43 93.09 164.34 93.23 165.25 93.58C166.23 93.86 167.07 94.315 167.77 94.945C168.54 95.575 169.1 96.31 169.45 97.15C169.87 97.99 169.975 98.83 169.765 99.67C172.145 100.16 174.665 100.37 177.325 100.3C180.055 100.23 182.54 100.02 184.78 99.67ZM230.476 115.84C229.706 115.63 228.726 115.525 227.536 115.525C226.346 115.455 225.086 115.455 223.756 115.525C222.426 115.595 221.166 115.665 219.976 115.735C218.786 115.735 217.841 115.7 217.141 115.63C216.931 116.54 216.616 117.59 216.196 118.78C215.846 119.9 215.321 120.705 214.621 121.195C213.781 121.755 212.661 122.14 211.261 122.35C209.861 122.49 208.496 122.42 207.166 122.14C205.836 121.79 204.681 121.16 203.701 120.25C202.791 119.34 202.406 118.08 202.546 116.47C202.686 114.02 202.756 111.675 202.756 109.435C202.756 107.195 202.896 104.99 203.176 102.82C203.386 101.7 203.701 101 204.121 100.72C205.031 99.6 206.221 98.83 207.691 98.41C210.421 97.71 212.626 98.06 214.306 99.46C215.986 100.79 217.001 102.68 217.351 105.13C218.261 105.27 219.276 105.41 220.396 105.55C221.586 105.69 222.776 105.795 223.966 105.865C225.226 105.935 226.416 105.97 227.536 105.97C228.726 105.97 229.776 105.865 230.686 105.655C230.616 103.345 230.546 101.21 230.476 99.25C230.476 97.22 230.336 95.4 230.056 93.79C229.776 92.18 229.356 90.78 228.796 89.59C228.306 88.4 227.571 87.455 226.591 86.755C225.121 85.355 223.371 84.305 221.341 83.605C219.311 82.905 217.176 82.485 214.936 82.345C213.466 82.205 212.066 82.205 210.736 82.345C209.476 82.415 208.146 82.38 206.746 82.24C205.066 82.24 203.386 82.345 201.706 82.555C200.096 82.765 198.556 83.15 197.086 83.71C195.686 84.2 194.426 84.83 193.306 85.6C192.256 86.37 191.486 87.28 190.996 88.33C190.786 89.03 190.471 90.045 190.051 91.375C189.631 92.705 189.386 93.755 189.316 94.525C188.896 97.045 188.686 99.565 188.686 102.085C188.966 104.395 189.036 106.95 188.896 109.75C188.826 112.55 188.861 115.35 189.001 118.15C189.141 120.88 189.561 123.505 190.261 126.025C190.961 128.545 192.256 130.645 194.146 132.325C196.596 134.775 199.606 136.315 203.176 136.945C205.136 136.945 207.306 137.015 209.686 137.155C212.066 137.365 214.376 137.365 216.616 137.155C218.856 137.015 220.921 136.595 222.811 135.895C224.771 135.195 226.346 134.005 227.536 132.325C228.026 131.835 228.411 131.065 228.691 130.015C229.041 128.895 229.321 127.6 229.531 126.13C229.741 124.59 229.916 122.945 230.056 121.195C230.196 119.445 230.336 117.66 230.476 115.84ZM237.446 88.12C237.236 88.89 236.921 89.94 236.501 91.27C236.081 92.53 235.836 93.545 235.766 94.315C235.556 95.645 235.416 96.94 235.346 98.2C235.276 99.39 235.241 100.615 235.241 101.875C235.451 104.185 235.486 106.74 235.346 109.54C235.276 112.34 235.311 115.14 235.451 117.94C235.591 120.67 236.011 123.295 236.711 125.815C237.411 128.335 238.706 130.435 240.596 132.115C243.046 134.565 246.056 136.105 249.626 136.735C251.586 136.735 253.756 136.805 256.136 136.945C258.516 137.155 260.826 137.155 263.066 136.945C265.306 136.805 267.371 136.385 269.261 135.685C271.221 134.985 272.796 133.795 273.986 132.115C274.686 131.415 275.211 130.12 275.561 128.23C275.981 126.34 276.296 124.205 276.506 121.825C276.786 119.445 276.961 116.96 277.031 114.37C277.171 111.78 277.276 109.47 277.346 107.44C277.276 105.13 277.206 102.89 277.136 100.72C277.066 98.48 276.891 96.45 276.611 94.63C276.331 92.74 275.911 91.095 275.351 89.695C274.791 88.295 274.021 87.28 273.041 86.65C271.571 85.25 269.821 84.2 267.791 83.5C265.761 82.73 263.626 82.275 261.386 82.135C259.916 81.995 258.516 81.995 257.186 82.135C255.926 82.205 254.596 82.17 253.196 82.03C251.516 82.03 249.836 82.135 248.156 82.345C246.546 82.555 245.006 82.94 243.536 83.5C242.136 83.99 240.876 84.62 239.756 85.39C238.706 86.16 237.936 87.07 237.446 88.12ZM250.571 100.51C251.481 99.39 252.671 98.62 254.141 98.2C256.871 97.57 259.076 97.815 260.756 98.935C262.436 100.055 263.451 101.84 263.801 104.29C264.221 106.32 264.326 108.49 264.116 110.8C263.976 113.04 263.766 115.28 263.486 117.52C263.066 119.27 262.261 120.425 261.071 120.985C260.161 121.475 259.006 121.825 257.606 122.035C256.206 122.175 254.841 122.105 253.511 121.825C252.251 121.475 251.166 120.88 250.256 120.04C249.346 119.13 248.926 117.87 248.996 116.26C249.136 113.81 249.206 111.5 249.206 109.33C249.206 107.09 249.346 104.85 249.626 102.61C249.836 101.49 250.151 100.79 250.571 100.51ZM302.466 98.62C304.636 98.69 306.911 98.795 309.291 98.935C311.741 99.075 314.751 99.25 318.321 99.46C318.461 98.13 318.566 97.08 318.636 96.31C318.706 95.54 318.741 94.91 318.741 94.42C318.811 93.93 318.846 93.475 318.846 93.055C318.846 92.565 318.846 91.935 318.846 91.165C318.916 90.185 318.916 89.345 318.846 88.645C318.776 87.875 318.811 87.105 318.951 86.335H302.886C302.536 84.585 302.536 83.045 302.886 81.715C303.306 80.315 304.321 79.475 305.931 79.195C306.911 79.055 307.996 78.915 309.186 78.775C310.376 78.565 311.566 78.39 312.756 78.25C313.946 78.11 315.066 78.005 316.116 77.935C317.236 77.865 318.216 77.865 319.056 77.935C319.196 76.955 319.336 75.87 319.476 74.68C319.616 73.49 319.721 72.265 319.791 71.005C319.861 69.745 319.826 68.485 319.686 67.225C319.616 65.965 319.406 64.81 319.056 63.76C315.766 63.62 312.371 63.69 308.871 63.97C305.441 64.18 302.256 64.775 299.316 65.755C296.936 66.525 295.011 67.715 293.541 69.325C292.071 70.865 290.916 72.615 290.076 74.575C289.306 76.465 288.816 78.425 288.606 80.455C288.396 82.485 288.361 84.375 288.501 86.125C287.381 86.055 286.191 86.02 284.931 86.02C283.741 86.02 282.411 86.02 280.941 86.02L281.256 98.83C282.656 98.76 283.951 98.725 285.141 98.725C286.401 98.725 287.591 98.725 288.711 98.725C288.711 99.775 288.676 101.28 288.606 103.24C288.606 105.2 288.571 107.44 288.501 109.96C288.501 112.41 288.501 114.965 288.501 117.625C288.501 120.285 288.501 122.84 288.501 125.29C288.571 127.67 288.606 129.84 288.606 131.8C288.676 133.69 288.781 135.055 288.921 135.895C289.831 136.035 290.811 136.07 291.861 136C292.981 135.93 294.136 135.86 295.326 135.79C296.516 135.65 297.706 135.545 298.896 135.475C300.086 135.405 301.276 135.44 302.466 135.58V121.51V98.62ZM336.161 83.185C333.921 83.255 331.996 83.255 330.386 83.185C328.776 83.115 327.516 83.045 326.606 82.975C326.256 82.975 325.731 82.94 325.031 82.87C324.401 82.8 323.946 82.8 323.666 82.87V82.975C323.246 87.105 323.036 91.375 323.036 95.785C323.036 100.125 323.106 104.535 323.246 109.015C323.386 113.495 323.456 118.01 323.456 122.56C323.526 127.11 323.386 131.59 323.036 136C323.526 135.86 324.506 135.825 325.976 135.895C327.446 135.965 328.986 136 330.596 136C332.276 136.07 333.816 136.07 335.216 136C336.616 136 337.491 135.79 337.841 135.37C337.351 126.9 337.211 118.255 337.421 109.435C337.701 100.615 337.876 91.97 337.946 83.5V83.185H336.161ZM323.246 60.295C323.176 63.515 323.211 66.245 323.351 68.485C323.561 70.655 323.666 72.755 323.666 74.785C324.996 74.715 326.431 74.75 327.971 74.89C329.511 74.96 330.946 75.03 332.276 75.1C333.676 75.1 334.866 75.03 335.846 74.89C336.896 74.75 337.561 74.47 337.841 74.05C337.841 73 337.806 71.81 337.736 70.48C337.736 69.08 337.701 67.75 337.631 66.49C337.631 65.16 337.596 63.97 337.526 62.92C337.526 61.8 337.526 61.03 337.526 60.61L323.246 60.295ZM357.69 109.645C358.39 109.785 359.51 109.89 361.05 109.96C362.59 110.03 364.305 110.065 366.195 110.065C368.155 110.065 370.185 110.03 372.285 109.96C374.385 109.89 376.345 109.785 378.165 109.645C380.055 109.505 381.665 109.365 382.995 109.225C384.395 109.085 385.34 108.945 385.83 108.805C386.04 105.865 386.04 102.96 385.83 100.09C385.62 97.22 384.99 94.595 383.94 92.215C382.96 89.835 381.49 87.805 379.53 86.125C377.57 84.445 374.98 83.325 371.76 82.765C369.24 82.135 366.65 81.855 363.99 81.925C361.33 81.995 358.81 82.415 356.43 83.185C354.05 83.885 351.915 84.97 350.025 86.44C348.135 87.84 346.735 89.555 345.825 91.585C344.985 93.895 344.425 96.275 344.145 98.725C343.935 101.105 343.725 103.59 343.515 106.18C343.375 109.05 343.445 111.92 343.725 114.79C344.005 117.66 344.53 120.39 345.3 122.98C346.07 125.5 347.085 127.845 348.345 130.015C349.605 132.115 351.18 133.83 353.07 135.16C354.75 136.14 356.57 136.77 358.53 137.05C360.49 137.05 362.625 137.12 364.935 137.26C367.315 137.4 369.625 137.4 371.865 137.26C374.105 137.12 376.17 136.7 378.06 136C379.95 135.3 381.49 134.11 382.68 132.43C383.17 132.01 383.555 131.275 383.835 130.225C384.185 129.105 384.465 127.81 384.675 126.34C384.885 124.8 385.06 123.155 385.2 121.405C385.34 119.655 385.48 117.87 385.62 116.05C384.85 115.84 383.87 115.735 382.68 115.735C381.49 115.665 380.23 115.665 378.9 115.735C377.64 115.805 376.415 115.875 375.225 115.945C374.035 115.945 373.09 115.91 372.39 115.84C372.53 118.71 372.075 120.88 371.025 122.35C370.045 123.75 368.82 124.59 367.35 124.87C365.88 125.15 364.375 124.905 362.835 124.135C361.295 123.365 360.105 122.175 359.265 120.565C358.495 119.305 358.04 118.01 357.9 116.68C357.83 115.35 357.76 113.635 357.69 111.535V109.645ZM370.395 93.37C371.655 94 372.635 94.945 373.335 96.205C374.105 97.465 374.49 98.795 374.49 100.195C374.49 100.755 374.49 101.14 374.49 101.35C374.49 101.49 374.28 101.595 373.86 101.665C373.51 101.665 372.88 101.63 371.97 101.56C371.06 101.49 369.695 101.455 367.875 101.455C365.215 101.455 363.185 101.49 361.785 101.56C360.455 101.56 359.475 101.525 358.845 101.455C358.215 101.315 357.865 101.105 357.795 100.825C357.795 100.475 357.865 99.915 358.005 99.145C358.145 98.235 358.355 97.36 358.635 96.52C358.985 95.68 359.475 94.945 360.105 94.315C360.735 93.685 361.575 93.195 362.625 92.845C363.675 92.495 365.04 92.32 366.72 92.32C367.49 92.32 368.155 92.425 368.715 92.635C369.275 92.775 369.835 93.02 370.395 93.37ZM392.06 59.665C391.43 66.035 391.115 72.405 391.115 78.775C391.185 85.145 391.325 91.515 391.535 97.885C391.745 104.255 391.885 110.625 391.955 116.995C392.095 123.365 391.92 129.7 391.43 136C391.92 135.86 392.9 135.825 394.37 135.895C395.84 135.965 397.38 136 398.99 136C400.67 136.07 402.21 136.07 403.61 136C405.01 136 405.885 135.79 406.235 135.37C406.095 132.57 405.99 129.175 405.92 125.185C405.85 121.125 405.815 116.785 405.815 112.165C405.815 107.545 405.815 102.75 405.815 97.78C405.885 92.81 405.955 88.015 406.025 83.395C406.095 78.775 406.165 74.435 406.235 70.375C406.305 66.315 406.34 62.85 406.34 59.98L392.06 59.665ZM440.786 63.34C440.716 64.74 440.646 65.825 440.576 66.595C440.576 67.295 440.541 67.96 440.471 68.59C440.471 69.15 440.436 69.78 440.366 70.48C440.366 71.11 440.366 72.055 440.366 73.315C440.366 74.505 440.366 76.115 440.366 78.145C440.366 80.175 440.401 82.835 440.471 86.125C440.331 85.495 439.561 84.935 438.161 84.445C436.761 83.955 435.046 83.64 433.016 83.5C430.986 83.29 428.816 83.29 426.506 83.5C424.266 83.64 422.201 84.06 420.311 84.76C418.771 85.32 417.441 86.3 416.321 87.7C415.271 89.03 414.396 90.675 413.696 92.635C413.066 94.525 412.576 96.625 412.226 98.935C411.946 101.245 411.806 103.625 411.806 106.075C411.876 109.575 412.086 113.04 412.436 116.47C412.856 119.9 413.626 123.015 414.746 125.815C415.936 128.545 417.686 130.82 419.996 132.64C422.306 134.39 425.456 135.405 429.446 135.685C431.406 135.965 433.261 135.825 435.011 135.265C436.761 134.635 438.161 133.27 439.211 131.17C439.421 130.75 439.596 130.645 439.736 130.855C439.946 130.995 440.121 131.24 440.261 131.59C440.261 132.36 440.261 132.955 440.261 133.375C440.331 133.795 440.366 134.355 440.366 135.055C440.366 135.405 440.401 135.65 440.471 135.79C442.571 136.07 444.916 136.14 447.506 136C450.096 135.93 452.476 135.895 454.646 135.895C454.926 125.815 454.891 115.07 454.541 103.66C454.191 92.25 454.016 80.7 454.016 69.01V62.08C452.896 61.87 451.566 61.765 450.026 61.765C448.486 61.695 447.016 61.695 445.616 61.765C444.286 61.765 443.131 61.835 442.151 61.975C441.241 62.045 440.786 62.115 440.786 62.185V63.34ZM424.511 102.925C424.861 100.475 425.876 98.62 427.556 97.36C429.306 96.1 431.616 95.47 434.486 95.47C435.956 95.47 437.111 95.61 437.951 95.89C438.861 96.1 439.526 96.625 439.946 97.465C440.366 98.305 440.611 99.53 440.681 101.14C440.821 102.68 440.891 104.815 440.891 107.545C440.891 109.785 440.821 111.85 440.681 113.74C440.611 115.56 440.296 117.135 439.736 118.465C439.246 119.795 438.476 120.845 437.426 121.615C436.446 122.385 435.081 122.77 433.331 122.77C431.861 122.77 430.531 122.385 429.341 121.615C428.151 120.845 427.136 119.83 426.296 118.57C425.456 117.24 424.826 115.77 424.406 114.16C423.986 112.48 423.776 110.765 423.776 109.015C423.776 108.035 423.811 107.02 423.881 105.97C423.951 104.92 424.161 103.905 424.511 102.925Z" fill="#FFFBFB"/>
<g filter="url(#filter0_d)">
<path d="M6 65.5L65.5 106.5L139 65.5" stroke="black" stroke-width="5"/>
</g>
<defs>
<filter id="filter0_d" x="0.581482" y="63.3167" width="143.636" height="54.1235" filterUnits="userSpaceOnUse" color-interpolation-filters="sRGB">
<feFlood flood-opacity="0" result="BackgroundImageFix"/>
<feColorMatrix in="SourceAlpha" type="matrix" values="0 0 0 0 0 0 0 0 0 0 0 0 0 0 0 0 0 0 127 0"/>
<feOffset dy="4"/>
<feGaussianBlur stdDeviation="2"/>
<feColorMatrix type="matrix" values="0 0 0 0 0 0 0 0 0 0 0 0 0 0 0 0 0 0 0.25 0"/>
<feBlend mode="normal" in2="BackgroundImageFix" result="effect1_dropShadow"/>
<feBlend mode="normal" in="SourceGraphic" in2="effect1_dropShadow" result="shape"/>
</filter>
</defs>
</svg>
